<svg width="308" height="242" viewBox="0 0 308 242" fill="none" xmlns="http://www.w3.org/2000/svg">
<rect x="110" y="220" width="22" height="22" fill="black"/>
<rect x="132" y="220" width="22" height="22" fill="black"/>
<rect x="154" y="198" width="22" height="22" fill="black"/>
<rect x="176" y="176" width="22" height="22" fill="black"/>
<rect x="198" y="154" width="22" height="22" fill="black"/>
<rect x="220" y="132" width="22" height="22" fill="black"/>
<rect x="242" y="110" width="22" height="22" fill="black"/>
<rect x="264" y="88" width="22" height="22" fill="black"/>
<rect x="286" y="66" width="22" height="22" fill="black"/>
<rect x="286" y="44" width="22" height="22" fill="black"/>
<rect x="264" y="22" width="22" height="22" fill="black"/>
<rect x="242" width="22" height="22" fill="black"/>
<rect x="220" width="22" height="22" fill="black"/>
<rect x="198" y="22" width="22" height="22" fill="black"/>
<rect x="176" y="44" width="22" height="22" fill="black"/>
<rect x="154" y="66" width="22" height="22" fill="black"/>
<rect x="132" y="88" width="22" height="22" fill="black"/>
<rect x="110" y="88" width="22" height="22" fill="black"/>
<rect x="88" y="66" width="22" height="22" fill="black"/>
<rect x="66" y="44" width="22" height="22" fill="black"/>
<rect x="44" y="44" width="22" height="22" fill="black"/>
<rect x="22" y="66" width="22" height="22" fill="black"/>
<rect y="88" width="22" height="22" fill="black"/>
<rect y="110" width="22" height="22" fill="black"/>
<rect x="22" y="132" width="22" height="22" fill="black"/>
<rect x="44" y="154" width="22" height="22" fill="black"/>
<rect x="66" y="176" width="22" height="22" fill="black"/>
<rect x="88" y="198" width="22" height="22" fill="black"/>
<rect x="110" y="110" width="22" height="22" fill="#ABCB68"/>
<rect x="132" y="110" width="22" height="22" fill="#ABCB68"/>
<rect x="154" y="88" width="22" height="22" fill="#ABCB68"/>
<rect x="176" y="66" width="22" height="22" fill="#ABCB68"/>
<rect x="198" y="44" width="22" height="22" fill="#ABCB68"/>
<rect x="220" y="22" width="22" height="22" fill="#ABCB68"/>
<rect x="242" y="22" width="22" height="22" fill="#ABCB68"/>
<rect x="264" y="44" width="22" height="22" fill="#ABCB68"/>
<rect x="88" y="88" width="22" height="22" fill="#ABCB68"/>
<rect x="66" y="66" width="22" height="22" fill="#ABCB68"/>
<rect x="44" y="66" width="22" height="22" fill="#ABCB68"/>
<rect x="44" y="88" width="22" height="22" fill="#4DAC50"/>
<rect x="66" y="88" width="22" height="22" fill="#4DAC50"/>
<rect x="22" y="88" width="22" height="22" fill="#4DAC50"/>
<rect x="44" y="110" width="22" height="22" fill="#4DAC50"/>
<rect x="66" y="110" width="22" height="22" fill="#4DAC50"/>
<rect x="66" y="132" width="22" height="22" fill="#4DAC50"/>
<rect x="88" y="110" width="22" height="22" fill="#4DAC50"/>
<rect x="88" y="132" width="22" height="22" fill="#4DAC50"/>
<rect x="110" y="132" width="22" height="22" fill="#4DAC50"/>
<rect x="132" y="132" width="22" height="22" fill="#4DAC50"/>
<rect x="154" y="132" width="22" height="22" fill="#4DAC50"/>
<rect x="154" y="110" width="22" height="22" fill="#4DAC50"/>
<rect x="176" y="110" width="22" height="22" fill="#4DAC50"/>
<rect x="176" y="88" width="22" height="22" fill="#4DAC50"/>
<rect x="198" y="88" width="22" height="22" fill="#4DAC50"/>
<rect x="198" y="66" width="22" height="22" fill="#4DAC50"/>
<rect x="220" y="66" width="22" height="22" fill="#4DAC50"/>
<rect x="220" y="44" width="22" height="22" fill="#4DAC50"/>
<rect x="242" y="44" width="22" height="22" fill="#4DAC50"/>
<rect x="242" y="66" width="22" height="22" fill="#4DAC50"/>
<rect x="220" y="88" width="22" height="22" fill="#4DAC50"/>
<rect x="198" y="110" width="22" height="22" fill="#4DAC50"/>
<rect x="176" y="132" width="22" height="22" fill="#4DAC50"/>
<rect x="154" y="154" width="22" height="22" fill="#4DAC50"/>
<rect x="132" y="154" width="22" height="22" fill="#4DAC50"/>
<rect x="132" y="176" width="22" height="22" fill="#4DAC50"/>
<rect x="110" y="176" width="22" height="22" fill="#4DAC50"/>
<rect x="110" y="154" width="22" height="22" fill="#4DAC50"/>
<rect x="88" y="154" width="22" height="22" fill="#4DAC50"/>
<rect x="110" y="198" width="22" height="22" fill="#437945"/>
<rect x="132" y="198" width="22" height="22" fill="#437945"/>
<rect x="154" y="176" width="22" height="22" fill="#437945"/>
<rect x="176" y="154" width="22" height="22" fill="#437945"/>
<rect x="198" y="132" width="22" height="22" fill="#437945"/>
<rect x="220" y="110" width="22" height="22" fill="#437945"/>
<rect x="242" y="88" width="22" height="22" fill="#437945"/>
<rect x="264" y="66" width="22" height="22" fill="#437945"/>
<rect x="88" y="176" width="22" height="22" fill="#437945"/>
<rect x="66" y="154" width="22" height="22" fill="#437945"/>
<rect x="44" y="132" width="22" height="22" fill="#437945"/>
<rect x="22" y="110" width="22" height="22" fill="#437945"/>
</svg>
