<svg width="308" height="308" viewBox="0 0 308 308" fill="none" xmlns="http://www.w3.org/2000/svg">
<path d="M44 110H66V132H44V110Z" fill="black"/>
<path d="M22 88H44V110H22V88Z" fill="black"/>
<path d="M0 66H22V88H0V66Z" fill="black"/>
<path d="M0 44H22V66H0V44Z" fill="black"/>
<path d="M22 22H44V44H22V22Z" fill="black"/>
<path d="M44 0H66V22H44V0Z" fill="black"/>
<path d="M66 0H88V22H66V0Z" fill="black"/>
<path d="M88 22H110V44H88V22Z" fill="black"/>
<path d="M110 44H132V66H110V44Z" fill="black"/>
<path d="M132 66H154V88H132V66Z" fill="black"/>
<path d="M154 66H176V88H154V66Z" fill="black"/>
<path d="M176 44H198V66H176V44Z" fill="black"/>
<path d="M198 22H220V44H198V22Z" fill="black"/>
<path d="M220 0H242V22H220V0Z" fill="black"/>
<path d="M242 0H264V22H242V0Z" fill="black"/>
<path d="M264 22H286V44H264V22Z" fill="black"/>
<path d="M286 44H308V66H286V44Z" fill="black"/>
<path d="M286 66H308V88H286V66Z" fill="black"/>
<path d="M264 88H286V110H264V88Z" fill="black"/>
<path d="M242 110H264V132H242V110Z" fill="black"/>
<path d="M220 132H242V154H220V132Z" fill="black"/>
<path d="M220 154H242V176H220V154Z" fill="black"/>
<path d="M242 176H264V198H242V176Z" fill="black"/>
<path d="M264 198H286V220H264V198Z" fill="black"/>
<path d="M286 220H308V242H286V220Z" fill="black"/>
<path d="M286 242H308V264H286V242Z" fill="black"/>
<path d="M264 264H286V286H264V264Z" fill="black"/>
<path d="M242 286H264V308H242V286Z" fill="black"/>
<path d="M220 286H242V308H220V286Z" fill="black"/>
<path d="M198 264H220V286H198V264Z" fill="black"/>
<path d="M176 242H198V264H176V242Z" fill="black"/>
<path d="M154 220H176V242H154V220Z" fill="black"/>
<path d="M132 220H154V242H132V220Z" fill="black"/>
<path d="M110 242H132V264H110V242Z" fill="black"/>
<path d="M88 264H110V286H88V264Z" fill="black"/>
<path d="M66 286H88V308H66V286Z" fill="black"/>
<path d="M44 286H66V308H44V286Z" fill="black"/>
<path d="M22 264H44V286H22V264Z" fill="black"/>
<path d="M22 198H44V220H22V198Z" fill="black"/>
<path d="M44 176H66V198H44V176Z" fill="black"/>
<path d="M0 220H22V264H0V220Z" fill="black"/>
<path d="M66 132H88V176H66V132Z" fill="black"/>
<path d="M88 44H110V66H88V44Z" fill="#EF7E78"/>
<path d="M66 22H88V44H66V22Z" fill="#EF7E78"/>
<path d="M44 22H66V44H44V22Z" fill="#EF7E78"/>
<path d="M110 66H132V88H110V66Z" fill="#EF7E78"/>
<path d="M132 88H154V110H132V88Z" fill="#EF7E78"/>
<path d="M154 88H176V110H154V88Z" fill="#EF7E78"/>
<path d="M176 66H198V88H176V66Z" fill="#EF7E78"/>
<path d="M198 44H220V66H198V44Z" fill="#EF7E78"/>
<path d="M220 22H242V44H220V22Z" fill="#EF7E78"/>
<path d="M242 22H264V44H242V22Z" fill="#EF7E78"/>
<path d="M264 44H286V66H264V44Z" fill="#EF7E78"/>
<path d="M220 176H242V198H220V176Z" fill="#EF7E78"/>
<path d="M242 198H264V220H242V198Z" fill="#EF7E78"/>
<path d="M264 220H286V242H264V220Z" fill="#EF7E78"/>
<path d="M66 176H88V198H66V176Z" fill="#EF7E78"/>
<path d="M44 198H66V220H44V198Z" fill="#EF7E78"/>
<path d="M22 220H44V242H22V220Z" fill="#EF7E78"/>
<path d="M88 132H110V154H88V132Z" fill="#952318"/>
<path d="M66 110H88V132H66V110Z" fill="#952318"/>
<path d="M44 88H66V110H44V88Z" fill="#952318"/>
<path d="M22 66H44V88H22V66Z" fill="#952318"/>
<path d="M198 132H220V154H198V132Z" fill="#952318"/>
<path d="M220 110H242V132H220V110Z" fill="#952318"/>
<path d="M242 88H264V110H242V88Z" fill="#952318"/>
<path d="M154 198H176V220H154V198Z" fill="#952318"/>
<path d="M132 198H154V220H132V198Z" fill="#952318"/>
<path d="M110 220H132V242H110V220Z" fill="#952318"/>
<path d="M88 242H110V264H88V242Z" fill="#952318"/>
<path d="M22 242H44V264H22V242Z" fill="#952318"/>
<path d="M176 220H198V242H176V220Z" fill="#952318"/>
<path d="M198 242H220V264H198V242Z" fill="#952318"/>
<path d="M264 242H286V264H264V242Z" fill="#952318"/>
<path d="M220 264H264V286H220V264Z" fill="#952318"/>
<path d="M44 264H88V286H44V264Z" fill="#952318"/>
<path d="M22 44H88V66H22V44Z" fill="#C42E20"/>
<path d="M198 66H286V88H198V66Z" fill="#C42E20"/>
<path d="M220 44H264V66H220V44Z" fill="#C42E20"/>
<path d="M176 88H242V110H176V88Z" fill="#C42E20"/>
<path d="M154 110H220V132H154V110Z" fill="#C42E20"/>
<path d="M110 132H198V154H110V132Z" fill="#C42E20"/>
<path d="M88 154H220V176H88V154Z" fill="#C42E20"/>
<path d="M88 176H220V198H88V176Z" fill="#C42E20"/>
<path d="M66 198H132V220H66V198Z" fill="#C42E20"/>
<path d="M44 220H110V242H44V220Z" fill="#C42E20"/>
<path d="M44 242H88V264H44V242Z" fill="#C42E20"/>
<path d="M220 242H264V264H220V242Z" fill="#C42E20"/>
<path d="M198 220H264V242H198V220Z" fill="#C42E20"/>
<path d="M176 198H242V220H176V198Z" fill="#C42E20"/>
<path d="M44 66H110V88H44V66Z" fill="#C42E20"/>
<path d="M66 88H132V110H66V88Z" fill="#C42E20"/>
<path d="M88 110H154V132H88V110Z" fill="#C42E20"/>
</svg>
