<svg width="308" height="308" viewBox="0 0 308 308" fill="none" xmlns="http://www.w3.org/2000/svg">
<rect x="44" y="110" width="22" height="22" fill="black"/>
<rect x="22" y="88" width="22" height="22" fill="black"/>
<rect y="66" width="22" height="22" fill="black"/>
<rect y="44" width="22" height="22" fill="black"/>
<rect x="22" y="22" width="22" height="22" fill="black"/>
<rect x="44" width="22" height="22" fill="black"/>
<rect x="66" width="22" height="22" fill="black"/>
<rect x="88" y="22" width="22" height="22" fill="black"/>
<rect x="110" y="44" width="22" height="22" fill="black"/>
<rect x="132" y="66" width="22" height="22" fill="black"/>
<rect x="154" y="66" width="22" height="22" fill="black"/>
<rect x="176" y="44" width="22" height="22" fill="black"/>
<rect x="198" y="22" width="22" height="22" fill="black"/>
<rect x="220" width="22" height="22" fill="black"/>
<rect x="242" width="22" height="22" fill="black"/>
<rect x="264" y="22" width="22" height="22" fill="black"/>
<rect x="286" y="44" width="22" height="22" fill="black"/>
<rect x="286" y="66" width="22" height="22" fill="black"/>
<rect x="264" y="88" width="22" height="22" fill="black"/>
<rect x="242" y="110" width="22" height="22" fill="black"/>
<rect x="220" y="132" width="22" height="22" fill="black"/>
<rect x="220" y="154" width="22" height="22" fill="black"/>
<rect x="242" y="176" width="22" height="22" fill="black"/>
<rect x="264" y="198" width="22" height="22" fill="black"/>
<rect x="286" y="220" width="22" height="22" fill="black"/>
<rect x="286" y="242" width="22" height="22" fill="black"/>
<rect x="264" y="264" width="22" height="22" fill="black"/>
<rect x="242" y="286" width="22" height="22" fill="black"/>
<rect x="220" y="286" width="22" height="22" fill="black"/>
<rect x="198" y="264" width="22" height="22" fill="black"/>
<rect x="176" y="242" width="22" height="22" fill="black"/>
<rect x="154" y="220" width="22" height="22" fill="black"/>
<rect x="132" y="220" width="22" height="22" fill="black"/>
<rect x="110" y="242" width="22" height="22" fill="black"/>
<rect x="88" y="264" width="22" height="22" fill="black"/>
<rect x="66" y="286" width="22" height="22" fill="black"/>
<rect x="44" y="286" width="22" height="22" fill="black"/>
<rect x="22" y="264" width="22" height="22" fill="black"/>
<rect x="22" y="198" width="22" height="22" fill="black"/>
<rect x="44" y="176" width="22" height="22" fill="black"/>
<rect y="220" width="22" height="44" fill="black"/>
<rect x="66" y="132" width="22" height="44" fill="black"/>
<rect x="88" y="44" width="22" height="22" fill="#EF7E78"/>
<rect x="66" y="22" width="22" height="22" fill="#EF7E78"/>
<rect x="44" y="22" width="22" height="22" fill="#EF7E78"/>
<rect x="110" y="66" width="22" height="22" fill="#EF7E78"/>
<rect x="132" y="88" width="22" height="22" fill="#EF7E78"/>
<rect x="154" y="88" width="22" height="22" fill="#EF7E78"/>
<rect x="176" y="66" width="22" height="22" fill="#EF7E78"/>
<rect x="198" y="44" width="22" height="22" fill="#EF7E78"/>
<rect x="220" y="22" width="22" height="22" fill="#EF7E78"/>
<rect x="242" y="22" width="22" height="22" fill="#EF7E78"/>
<rect x="264" y="44" width="22" height="22" fill="#EF7E78"/>
<rect x="220" y="176" width="22" height="22" fill="#EF7E78"/>
<rect x="242" y="198" width="22" height="22" fill="#EF7E78"/>
<rect x="264" y="220" width="22" height="22" fill="#EF7E78"/>
<rect x="66" y="176" width="22" height="22" fill="#EF7E78"/>
<rect x="44" y="198" width="22" height="22" fill="#EF7E78"/>
<rect x="22" y="220" width="22" height="22" fill="#EF7E78"/>
<rect x="88" y="132" width="22" height="22" fill="#952318"/>
<rect x="66" y="110" width="22" height="22" fill="#952318"/>
<rect x="44" y="88" width="22" height="22" fill="#952318"/>
<rect x="22" y="66" width="22" height="22" fill="#952318"/>
<rect x="198" y="132" width="22" height="22" fill="#952318"/>
<rect x="220" y="110" width="22" height="22" fill="#952318"/>
<rect x="242" y="88" width="22" height="22" fill="#952318"/>
<rect x="154" y="198" width="22" height="22" fill="#952318"/>
<rect x="132" y="198" width="22" height="22" fill="#952318"/>
<rect x="110" y="220" width="22" height="22" fill="#952318"/>
<rect x="88" y="242" width="22" height="22" fill="#952318"/>
<rect x="22" y="242" width="22" height="22" fill="#952318"/>
<rect x="176" y="220" width="22" height="22" fill="#952318"/>
<rect x="198" y="242" width="22" height="22" fill="#952318"/>
<rect x="264" y="242" width="22" height="22" fill="#952318"/>
<rect x="220" y="264" width="44" height="22" fill="#952318"/>
<rect x="44" y="264" width="44" height="22" fill="#952318"/>
<rect x="22" y="44" width="66" height="22" fill="#C42E20"/>
<rect x="198" y="66" width="88" height="22" fill="#C42E20"/>
<rect x="220" y="44" width="44" height="22" fill="#C42E20"/>
<rect x="176" y="88" width="66" height="22" fill="#C42E20"/>
<rect x="154" y="110" width="66" height="22" fill="#C42E20"/>
<rect x="110" y="132" width="88" height="22" fill="#C42E20"/>
<rect x="88" y="154" width="132" height="22" fill="#C42E20"/>
<rect x="88" y="176" width="132" height="22" fill="#C42E20"/>
<rect x="66" y="198" width="66" height="22" fill="#C42E20"/>
<rect x="44" y="220" width="66" height="22" fill="#C42E20"/>
<rect x="44" y="242" width="44" height="22" fill="#C42E20"/>
<rect x="220" y="242" width="44" height="22" fill="#C42E20"/>
<rect x="198" y="220" width="66" height="22" fill="#C42E20"/>
<rect x="176" y="198" width="66" height="22" fill="#C42E20"/>
<rect x="44" y="66" width="66" height="22" fill="#C42E20"/>
<rect x="66" y="88" width="66" height="22" fill="#C42E20"/>
<rect x="88" y="110" width="66" height="22" fill="#C42E20"/>
</svg>
